<?xml version="1.0" encoding="utf-8"?>
<!-- Generator: Adobe Illustrator 19.0.0, SVG Export Plug-In . SVG Version: 6.00 Build 0)  -->
<svg version="1.1" id="圖層_1" xmlns="http://www.w3.org/2000/svg" xmlns:xlink="http://www.w3.org/1999/xlink" x="0px" y="0px"
	 viewBox="0 0 62.1 47.1" style="enable-background:new 0 0 62.1 47.1;" xml:space="preserve">
<style type="text/css">
	.st0{display:none;fill:#0B132E;}
	.st1{fill:#DFC176;}
	.st2{fill:url(#XMLID_3_);}
	.st3{fill:url(#XMLID_5_);}
	.st4{fill:url(#XMLID_6_);}
</style>
<rect id="XMLID_80_" x="-99.1" y="-55.8" class="st0" width="261" height="158.6"/>
<g id="XMLID_1_">
	<g id="XMLID_11_">
		<path id="XMLID_90_" class="st1" d="M5.6,45.7c1.6,0.1,2.8,0.1,3.3,0.1c0.1,0,0.2,0,0.3-0.1c0.1-0.1,0.1-0.2,0.1-0.3v-0.8H7.3
			c-0.6,0-1.1-0.1-1.4-0.4c-0.3-0.3-0.4-0.7-0.4-1.4v-0.3c0-0.6,0.1-1.1,0.4-1.4c0.3-0.3,0.7-0.4,1.4-0.4h3.2v1.3H7.7
			c-0.4,0-0.5,0.2-0.5,0.5v0.2c0,0.4,0.2,0.5,0.5,0.5h1.6c0.6,0,1,0.1,1.3,0.4c0.3,0.3,0.4,0.7,0.4,1.3v0.5c0,0.6-0.1,1-0.4,1.3
			c-0.3,0.3-0.7,0.4-1.3,0.4c-0.3,0-0.6,0-1,0l-0.8,0c-0.6,0-1.2-0.1-1.9-0.1V45.7z"/>
		<path id="XMLID_88_" class="st1" d="M18,47h-1.6v-5h-1.9v-1.3h5.4v1.3H18V47z"/>
		<path id="XMLID_86_" class="st1" d="M27.5,40.7h1.6v4.6c0,0.6-0.1,1.1-0.4,1.4c-0.3,0.3-0.7,0.4-1.4,0.4h-2.1
			c-0.6,0-1.1-0.1-1.4-0.4s-0.4-0.7-0.4-1.4v-4.6h1.6v4.6c0,0.4,0.2,0.5,0.5,0.5h1.4c0.4,0,0.5-0.2,0.5-0.5V40.7z"/>
		<path id="XMLID_83_" class="st1" d="M36.9,40.7c0.7,0,1.2,0.2,1.5,0.5c0.4,0.4,0.5,0.9,0.5,1.5v2.2c0,0.7-0.2,1.2-0.5,1.5
			c-0.4,0.4-0.9,0.5-1.5,0.5h-3.5v-6.3H36.9z M37.3,42.7c0-0.5-0.3-0.8-0.8-0.8H35v3.8h1.5c0.5,0,0.8-0.3,0.8-0.8V42.7z"/>
		<path id="XMLID_81_" class="st1" d="M46,47h-3.2v-1.3h0.8v-3.8h-0.8v-1.3H46v1.3h-0.8v3.8H46V47z"/>
		<path id="XMLID_17_" class="st1" d="M56.1,45.3c0,0.6-0.1,1.1-0.4,1.4c-0.3,0.3-0.7,0.4-1.4,0.4h-2.3c-0.6,0-1.1-0.1-1.4-0.4
			c-0.3-0.3-0.4-0.7-0.4-1.4v-2.9c0-0.6,0.1-1.1,0.4-1.4c0.3-0.3,0.7-0.4,1.4-0.4h2.3c0.6,0,1.1,0.1,1.4,0.4
			c0.3,0.3,0.4,0.7,0.4,1.4V45.3z M54.5,42.4c0-0.4-0.2-0.5-0.5-0.5h-1.5c-0.4,0-0.5,0.2-0.5,0.5v2.9c0,0.4,0.2,0.5,0.5,0.5H54
			c0.4,0,0.5-0.2,0.5-0.5V42.4z"/>
	</g>
	<g id="XMLID_4_">
		<linearGradient id="XMLID_3_" gradientUnits="userSpaceOnUse" x1="31.0737" y1="33.1212" x2="31.0737" y2="3.627738e-007">
			<stop  offset="0" style="stop-color:#DFC176"/>
			<stop  offset="0.3316" style="stop-color:#EAE5BA"/>
			<stop  offset="0.7" style="stop-color:#FFFCD3"/>
			<stop  offset="1" style="stop-color:#E7D199"/>
		</linearGradient>
		<path id="XMLID_10_" class="st2" d="M45.6,0c-5.5,0-10.4,2.7-13.4,6.8c-0.4,0.6-0.8,1.2-1.1,1.8c-1.3,2.4-2,5.1-2,8
			c0,2.7-0.9,5.2-2.3,7.3c-2.3,3.2-6,5.2-10.1,5.2C9.7,29,4.1,23.4,4.1,16.6S9.7,4.1,16.6,4.1c3.9,0,7.4,1.8,9.7,4.7l2.6-3.3
			C25.8,2.1,21.4,0,16.6,0C7.4,0,0,7.4,0,16.6s7.4,16.6,16.6,16.6c5.5,0,10.4-2.7,13.4-6.8c0.4-0.6,0.8-1.2,1.1-1.8
			c1.3-2.4,2-5.1,2-8c0-2.7,0.9-5.2,2.3-7.3c2.3-3.1,6-5.2,10.1-5.2c6.9,0,12.5,5.6,12.5,12.5S52.5,29,45.6,29
			c-3.9,0-7.4-1.8-9.7-4.7l-2.6,3.3c3,3.4,7.4,5.5,12.3,5.5c9.1,0,16.6-7.4,16.6-16.6S54.7,0,45.6,0z"/>
		<linearGradient id="XMLID_5_" gradientUnits="userSpaceOnUse" x1="16.2641" y1="21.4149" x2="16.2641" y2="11.7064">
			<stop  offset="0" style="stop-color:#DFC176"/>
			<stop  offset="0.3316" style="stop-color:#EAE5BA"/>
			<stop  offset="0.7" style="stop-color:#FFFCD3"/>
			<stop  offset="1" style="stop-color:#E7D199"/>
		</linearGradient>
		<polygon id="XMLID_120_" class="st3" points="20.1,21.4 20.1,11.7 18.2,11.7 18.2,15.6 14.3,15.6 14.3,11.7 12.4,11.7 12.4,21.4 
			14.3,21.4 14.3,17.5 18.2,17.5 18.2,21.4 		"/>
		<linearGradient id="XMLID_6_" gradientUnits="userSpaceOnUse" x1="45.645" y1="21.4149" x2="45.645" y2="11.7064">
			<stop  offset="0" style="stop-color:#DFC176"/>
			<stop  offset="0.3316" style="stop-color:#EAE5BA"/>
			<stop  offset="0.7" style="stop-color:#FFFCD3"/>
			<stop  offset="1" style="stop-color:#E7D199"/>
		</linearGradient>
		<path id="XMLID_146_" class="st4" d="M41.8,11.7v2.9c0,0.4,0.1,0.9,0.2,1.3c0.1,0.4,0.3,0.8,0.6,1.1c0.3,0.3,0.6,0.6,0.9,0.9
			c0.4,0.2,0.8,0.4,1.2,0.5v3h1.9v-3c0.4-0.1,0.8-0.3,1.2-0.5c0.4-0.2,0.7-0.5,0.9-0.9c0.3-0.3,0.5-0.7,0.6-1.1
			c0.1-0.4,0.2-0.8,0.2-1.3v-2.9h-1.9v2.9c0,0.3-0.1,0.5-0.2,0.8c-0.1,0.2-0.2,0.4-0.4,0.6s-0.4,0.3-0.6,0.4
			c-0.2,0.1-0.5,0.2-0.8,0.2c-0.3,0-0.5-0.1-0.8-0.2c-0.2-0.1-0.4-0.2-0.6-0.4s-0.3-0.4-0.4-0.6c-0.1-0.2-0.2-0.5-0.2-0.8v-2.9H41.8
			z"/>
	</g>
</g>
</svg>
